<?xml version="1.0" encoding="UTF-8" standalone="no"?>
<!DOCTYPE svg PUBLIC "-//W3C//DTD SVG 1.1//EN"
 "http://www.w3.org/Graphics/SVG/1.1/DTD/svg11.dtd">
<!-- Generated by graphviz version 2.38.0 (20140413.2041)
 -->
<!-- Title: trace Pages: 1 -->
<svg width="293pt" height="1168pt"
 viewBox="0.00 0.00 293.00 1168.00" xmlns="http://www.w3.org/2000/svg" xmlns:xlink="http://www.w3.org/1999/xlink">
<g id="graph0" class="graph" transform="scale(1 1) rotate(0) translate(4 1164)">
<title>trace</title>
<polygon fill="white" stroke="none" points="-4,4 -4,-1164 289,-1164 289,4 -4,4"/>
<g id="clust1" class="cluster"><title>cluster_12389</title>
<polygon fill="none" stroke="#608686" points="44,-242 44,-396 228,-396 228,-242 44,-242"/>
<text text-anchor="middle" x="136" y="-384" font-family="Times,serif" font-size="10.00">12389</text>
<text text-anchor="middle" x="136" y="-373" font-family="Times,serif" font-size="10.00">[ROSTELECOM&#45;AS, RU]</text>
</g>
<g id="clust2" class="cluster"><title>cluster_50837</title>
<polygon fill="none" stroke="#60baba" points="56,-998 56,-1152 216,-1152 216,-998 56,-998"/>
<text text-anchor="middle" x="136" y="-1140" font-family="Times,serif" font-size="10.00">50837</text>
<text text-anchor="middle" x="136" y="-1129" font-family="Times,serif" font-size="10.00">[CLOUDSIGMA&#45;AS, CH]</text>
</g>
<g id="clust3" class="cluster"><title>cluster_174</title>
<polygon fill="none" stroke="#60ffff" points="38,-404 38,-990 277,-990 277,-404 38,-404"/>
<text text-anchor="middle" x="157.5" y="-978" font-family="Times,serif" font-size="10.00">174</text>
<text text-anchor="middle" x="157.5" y="-967" font-family="Times,serif" font-size="10.00">[COGENT&#45;174 &#45; Cogent Communications, US]</text>
</g>
<g id="clust4" class="cluster"><title>cluster_196949</title>
<polygon fill="none" stroke="#868660" points="8,-8 8,-234 264,-234 264,-8 8,-8"/>
<text text-anchor="middle" x="136" y="-222" font-family="Times,serif" font-size="10.00">196949</text>
<text text-anchor="middle" x="136" y="-211" font-family="Times,serif" font-size="10.00">[PODRYAD&#45;AS, RU]</text>
</g>
<!-- 87.226.230.242 -->
<g id="node1" class="node"><title>87.226.230.242</title>
<ellipse fill="#608686" stroke="black" cx="136" cy="-268" rx="83.6854" ry="18"/>
<text text-anchor="middle" x="136" y="-264.3" font-family="Times,serif" font-size="14.00">87.226.230.242</text>
</g>
<!-- 109.110.48.18 -->
<g id="node13" class="node"><title>109.110.48.18</title>
<ellipse fill="#868660" stroke="black" cx="136" cy="-178" rx="77.9862" ry="18"/>
<text text-anchor="middle" x="136" y="-174.3" font-family="Times,serif" font-size="14.00">109.110.48.18</text>
</g>
<!-- 87.226.230.242&#45;&gt;109.110.48.18 -->
<g id="edge12" class="edge"><title>87.226.230.242&#45;&gt;109.110.48.18</title>
<path fill="none" stroke="#a07070" d="M136,-249.614C136,-237.24 136,-220.369 136,-206.22"/>
<polygon fill="#a07070" stroke="#a07070" points="139.5,-206.05 136,-196.05 132.5,-206.05 139.5,-206.05"/>
</g>
<!-- 95.167.92.1 -->
<g id="node2" class="node"><title>95.167.92.1</title>
<ellipse fill="#608686" stroke="black" cx="136" cy="-340" rx="66.0889" ry="18"/>
<text text-anchor="middle" x="136" y="-336.3" font-family="Times,serif" font-size="14.00">95.167.92.1</text>
</g>
<!-- 95.167.92.1&#45;&gt;87.226.230.242 -->
<g id="edge11" class="edge"><title>95.167.92.1&#45;&gt;87.226.230.242</title>
<path fill="none" stroke="#a07070" d="M136,-321.697C136,-313.983 136,-304.712 136,-296.112"/>
<polygon fill="#a07070" stroke="#a07070" points="139.5,-296.104 136,-286.104 132.5,-296.104 139.5,-296.104"/>
</g>
<!-- 104.36.18.3 -->
<g id="node3" class="node"><title>104.36.18.3</title>
<ellipse fill="#60baba" stroke="black" cx="136" cy="-1096" rx="66.0889" ry="18"/>
<text text-anchor="middle" x="136" y="-1092.3" font-family="Times,serif" font-size="14.00">104.36.18.3</text>
</g>
<!-- 31.171.250.5 -->
<g id="node4" class="node"><title>31.171.250.5</title>
<ellipse fill="#60baba" stroke="black" cx="136" cy="-1024" rx="72.2875" ry="18"/>
<text text-anchor="middle" x="136" y="-1020.3" font-family="Times,serif" font-size="14.00">31.171.250.5</text>
</g>
<!-- 104.36.18.3&#45;&gt;31.171.250.5 -->
<g id="edge1" class="edge"><title>104.36.18.3&#45;&gt;31.171.250.5</title>
<path fill="none" stroke="#a07070" d="M136,-1077.7C136,-1069.98 136,-1060.71 136,-1052.11"/>
<polygon fill="#a07070" stroke="#a07070" points="139.5,-1052.1 136,-1042.1 132.5,-1052.1 139.5,-1052.1"/>
</g>
<!-- 38.122.63.209 -->
<g id="node6" class="node"><title>38.122.63.209</title>
<ellipse fill="#60ffff" stroke="black" cx="136" cy="-934" rx="77.9862" ry="18"/>
<text text-anchor="middle" x="136" y="-930.3" font-family="Times,serif" font-size="14.00">38.122.63.209</text>
</g>
<!-- 31.171.250.5&#45;&gt;38.122.63.209 -->
<g id="edge2" class="edge"><title>31.171.250.5&#45;&gt;38.122.63.209</title>
<path fill="none" stroke="#a07070" d="M136,-1005.61C136,-993.24 136,-976.369 136,-962.22"/>
<polygon fill="#a07070" stroke="#a07070" points="139.5,-962.05 136,-952.05 132.5,-962.05 139.5,-962.05"/>
</g>
<!-- 130.117.51.42 -->
<g id="node5" class="node"><title>130.117.51.42</title>
<ellipse fill="#60ffff" stroke="black" cx="136" cy="-646" rx="77.9862" ry="18"/>
<text text-anchor="middle" x="136" y="-642.3" font-family="Times,serif" font-size="14.00">130.117.51.42</text>
</g>
<!-- 130.117.0.122 -->
<g id="node8" class="node"><title>130.117.0.122</title>
<ellipse fill="#60ffff" stroke="black" cx="136" cy="-574" rx="77.9862" ry="18"/>
<text text-anchor="middle" x="136" y="-570.3" font-family="Times,serif" font-size="14.00">130.117.0.122</text>
</g>
<!-- 130.117.51.42&#45;&gt;130.117.0.122 -->
<g id="edge7" class="edge"><title>130.117.51.42&#45;&gt;130.117.0.122</title>
<path fill="none" stroke="#a07070" d="M136,-627.697C136,-619.983 136,-610.712 136,-602.112"/>
<polygon fill="#a07070" stroke="#a07070" points="139.5,-602.104 136,-592.104 132.5,-602.104 139.5,-602.104"/>
</g>
<!-- 154.54.30.65 -->
<g id="node12" class="node"><title>154.54.30.65</title>
<ellipse fill="#60ffff" stroke="black" cx="136" cy="-862" rx="72.2875" ry="18"/>
<text text-anchor="middle" x="136" y="-858.3" font-family="Times,serif" font-size="14.00">154.54.30.65</text>
</g>
<!-- 38.122.63.209&#45;&gt;154.54.30.65 -->
<g id="edge3" class="edge"><title>38.122.63.209&#45;&gt;154.54.30.65</title>
<path fill="none" stroke="#a07070" d="M136,-915.697C136,-907.983 136,-898.712 136,-890.112"/>
<polygon fill="#a07070" stroke="#a07070" points="139.5,-890.104 136,-880.104 132.5,-890.104 139.5,-890.104"/>
</g>
<!-- 154.54.40.109 -->
<g id="node7" class="node"><title>154.54.40.109</title>
<ellipse fill="#60ffff" stroke="black" cx="136" cy="-790" rx="77.9862" ry="18"/>
<text text-anchor="middle" x="136" y="-786.3" font-family="Times,serif" font-size="14.00">154.54.40.109</text>
</g>
<!-- 154.54.42.86 -->
<g id="node11" class="node"><title>154.54.42.86</title>
<ellipse fill="#60ffff" stroke="black" cx="136" cy="-718" rx="72.2875" ry="18"/>
<text text-anchor="middle" x="136" y="-714.3" font-family="Times,serif" font-size="14.00">154.54.42.86</text>
</g>
<!-- 154.54.40.109&#45;&gt;154.54.42.86 -->
<g id="edge5" class="edge"><title>154.54.40.109&#45;&gt;154.54.42.86</title>
<path fill="none" stroke="#a07070" d="M136,-771.697C136,-763.983 136,-754.712 136,-746.112"/>
<polygon fill="#a07070" stroke="#a07070" points="139.5,-746.104 136,-736.104 132.5,-746.104 139.5,-746.104"/>
</g>
<!-- 154.54.56.190 -->
<g id="node10" class="node"><title>154.54.56.190</title>
<ellipse fill="#60ffff" stroke="black" cx="136" cy="-502" rx="77.9862" ry="18"/>
<text text-anchor="middle" x="136" y="-498.3" font-family="Times,serif" font-size="14.00">154.54.56.190</text>
</g>
<!-- 130.117.0.122&#45;&gt;154.54.56.190 -->
<g id="edge8" class="edge"><title>130.117.0.122&#45;&gt;154.54.56.190</title>
<path fill="none" stroke="#a07070" d="M136,-555.697C136,-547.983 136,-538.712 136,-530.112"/>
<polygon fill="#a07070" stroke="#a07070" points="139.5,-530.104 136,-520.104 132.5,-530.104 139.5,-530.104"/>
</g>
<!-- 149.11.20.238 -->
<g id="node9" class="node"><title>149.11.20.238</title>
<ellipse fill="#60ffff" stroke="black" cx="136" cy="-430" rx="77.9862" ry="18"/>
<text text-anchor="middle" x="136" y="-426.3" font-family="Times,serif" font-size="14.00">149.11.20.238</text>
</g>
<!-- 149.11.20.238&#45;&gt;95.167.92.1 -->
<g id="edge10" class="edge"><title>149.11.20.238&#45;&gt;95.167.92.1</title>
<path fill="none" stroke="#a07070" d="M136,-411.614C136,-399.24 136,-382.369 136,-368.22"/>
<polygon fill="#a07070" stroke="#a07070" points="139.5,-368.05 136,-358.05 132.5,-368.05 139.5,-368.05"/>
</g>
<!-- 154.54.56.190&#45;&gt;149.11.20.238 -->
<g id="edge9" class="edge"><title>154.54.56.190&#45;&gt;149.11.20.238</title>
<path fill="none" stroke="#a07070" d="M136,-483.697C136,-475.983 136,-466.712 136,-458.112"/>
<polygon fill="#a07070" stroke="#a07070" points="139.5,-458.104 136,-448.104 132.5,-458.104 139.5,-458.104"/>
</g>
<!-- 154.54.42.86&#45;&gt;130.117.51.42 -->
<g id="edge6" class="edge"><title>154.54.42.86&#45;&gt;130.117.51.42</title>
<path fill="none" stroke="#a07070" d="M136,-699.697C136,-691.983 136,-682.712 136,-674.112"/>
<polygon fill="#a07070" stroke="#a07070" points="139.5,-674.104 136,-664.104 132.5,-674.104 139.5,-674.104"/>
</g>
<!-- 154.54.30.65&#45;&gt;154.54.40.109 -->
<g id="edge4" class="edge"><title>154.54.30.65&#45;&gt;154.54.40.109</title>
<path fill="none" stroke="#a07070" d="M136,-843.697C136,-835.983 136,-826.712 136,-818.112"/>
<polygon fill="#a07070" stroke="#a07070" points="139.5,-818.104 136,-808.104 132.5,-818.104 139.5,-818.104"/>
</g>
<!-- 109.110.48.158 -->
<g id="node14" class="node"><title>109.110.48.158</title>
<ellipse fill="#868660" stroke="black" cx="136" cy="-106" rx="83.6854" ry="18"/>
<text text-anchor="middle" x="136" y="-102.3" font-family="Times,serif" font-size="14.00">109.110.48.158</text>
</g>
<!-- 109.110.48.18&#45;&gt;109.110.48.158 -->
<g id="edge13" class="edge"><title>109.110.48.18&#45;&gt;109.110.48.158</title>
<path fill="none" stroke="#a07070" d="M136,-159.697C136,-151.983 136,-142.712 136,-134.112"/>
<polygon fill="#a07070" stroke="#a07070" points="139.5,-134.104 136,-124.104 132.5,-134.104 139.5,-134.104"/>
</g>
<!-- 109.110.32.86 80/tcp -->
<g id="node15" class="node"><title>109.110.32.86 80/tcp</title>
<polygon fill="red" stroke="black" points="255.688,-26.5442 255.688,-41.4558 185.576,-52 86.4238,-52 16.3125,-41.4558 16.3125,-26.5442 86.4238,-16 185.576,-16 255.688,-26.5442"/>
<text text-anchor="middle" x="136" y="-30.3" font-family="Times,serif" font-size="14.00">109.110.32.86 80/tcp</text>
</g>
<!-- 109.110.48.158&#45;&gt;109.110.32.86 80/tcp -->
<g id="edge14" class="edge"><title>109.110.48.158&#45;&gt;109.110.32.86 80/tcp</title>
<path fill="none" stroke="#a07070" d="M136,-87.6966C136,-79.9827 136,-70.7125 136,-62.1124"/>
<polygon fill="#a07070" stroke="#a07070" points="139.5,-62.1043 136,-52.1043 132.5,-62.1044 139.5,-62.1043"/>
</g>
</g>
</svg>
