<?xml version="1.0" encoding="UTF-8" standalone="no"?>
<!DOCTYPE svg PUBLIC "-//W3C//DTD SVG 1.1//EN"
 "http://www.w3.org/Graphics/SVG/1.1/DTD/svg11.dtd">
<!-- Generated by graphviz version 2.38.0 (20140413.2041)
 -->
<!-- Title: trace Pages: 1 -->
<svg width="368pt" height="1402pt"
 viewBox="0.00 0.00 368.00 1402.00" xmlns="http://www.w3.org/2000/svg" xmlns:xlink="http://www.w3.org/1999/xlink">
<g id="graph0" class="graph" transform="scale(1 1) rotate(0) translate(4 1398)">
<title>trace</title>
<polygon fill="white" stroke="none" points="-4,4 -4,-1398 364,-1398 364,4 -4,4"/>
<g id="clust1" class="cluster"><title>cluster_38040</title>
<polygon fill="none" stroke="#608686" points="8,-170 8,-396 352,-396 352,-170 8,-170"/>
<text text-anchor="middle" x="180" y="-384" font-family="Times,serif" font-size="10.00">38040</text>
<text text-anchor="middle" x="180" y="-373" font-family="Times,serif" font-size="10.00">[GLOBAL&#45;TRANSIT&#45;TOT&#45;IIG&#45;TH TOT Public Company Limited, TH]</text>
</g>
<g id="clust2" class="cluster"><title>cluster_23969</title>
<polygon fill="none" stroke="#60baba" points="32,-8 32,-162 288,-162 288,-8 32,-8"/>
<text text-anchor="middle" x="160" y="-150" font-family="Times,serif" font-size="10.00">23969</text>
<text text-anchor="middle" x="160" y="-139" font-family="Times,serif" font-size="10.00">[TOT&#45;NET TOT Public Company Limited, TH]</text>
</g>
<g id="clust3" class="cluster"><title>cluster_4766</title>
<polygon fill="none" stroke="#60ffff" points="72,-404 72,-558 248,-558 248,-404 72,-404"/>
<text text-anchor="middle" x="160" y="-546" font-family="Times,serif" font-size="10.00">4766</text>
<text text-anchor="middle" x="160" y="-535" font-family="Times,serif" font-size="10.00">[KIXS&#45;AS&#45;KR Korea Telecom, KR]</text>
</g>
<g id="clust4" class="cluster"><title>cluster_50837</title>
<polygon fill="none" stroke="#868660" points="80,-1232 80,-1386 240,-1386 240,-1232 80,-1232"/>
<text text-anchor="middle" x="160" y="-1374" font-family="Times,serif" font-size="10.00">50837</text>
<text text-anchor="middle" x="160" y="-1363" font-family="Times,serif" font-size="10.00">[CLOUDSIGMA&#45;AS, CH]</text>
</g>
<g id="clust5" class="cluster"><title>cluster_174</title>
<polygon fill="none" stroke="#86ba86" points="41,-566 41,-1224 280,-1224 280,-566 41,-566"/>
<text text-anchor="middle" x="160.5" y="-1212" font-family="Times,serif" font-size="10.00">174</text>
<text text-anchor="middle" x="160.5" y="-1201" font-family="Times,serif" font-size="10.00">[COGENT&#45;174 &#45; Cogent Communications, US]</text>
</g>
<!-- 203.190.251.221 -->
<g id="node1" class="node"><title>203.190.251.221</title>
<ellipse fill="#608686" stroke="black" cx="160" cy="-268" rx="89.8845" ry="18"/>
<text text-anchor="middle" x="160" y="-264.3" font-family="Times,serif" font-size="14.00">203.190.251.221</text>
</g>
<!-- 203.190.250.138 -->
<g id="node2" class="node"><title>203.190.250.138</title>
<ellipse fill="#608686" stroke="black" cx="160" cy="-196" rx="89.8845" ry="18"/>
<text text-anchor="middle" x="160" y="-192.3" font-family="Times,serif" font-size="14.00">203.190.250.138</text>
</g>
<!-- 203.190.251.221&#45;&gt;203.190.250.138 -->
<g id="edge15" class="edge"><title>203.190.251.221&#45;&gt;203.190.250.138</title>
<path fill="none" stroke="#a07070" d="M160,-249.697C160,-241.983 160,-232.712 160,-224.112"/>
<polygon fill="#a07070" stroke="#a07070" points="163.5,-224.104 160,-214.104 156.5,-224.104 163.5,-224.104"/>
</g>
<!-- 203.113.37.181 -->
<g id="node4" class="node"><title>203.113.37.181</title>
<ellipse fill="#60baba" stroke="black" cx="160" cy="-106" rx="83.6854" ry="18"/>
<text text-anchor="middle" x="160" y="-102.3" font-family="Times,serif" font-size="14.00">203.113.37.181</text>
</g>
<!-- 203.190.250.138&#45;&gt;203.113.37.181 -->
<g id="edge16" class="edge"><title>203.190.250.138&#45;&gt;203.113.37.181</title>
<path fill="none" stroke="#a07070" d="M160,-177.614C160,-165.24 160,-148.369 160,-134.22"/>
<polygon fill="#a07070" stroke="#a07070" points="163.5,-134.05 160,-124.05 156.5,-134.05 163.5,-134.05"/>
</g>
<!-- 203.190.251.222 -->
<g id="node3" class="node"><title>203.190.251.222</title>
<ellipse fill="#608686" stroke="black" cx="160" cy="-340" rx="89.8845" ry="18"/>
<text text-anchor="middle" x="160" y="-336.3" font-family="Times,serif" font-size="14.00">203.190.251.222</text>
</g>
<!-- 203.190.251.222&#45;&gt;203.190.251.221 -->
<g id="edge14" class="edge"><title>203.190.251.222&#45;&gt;203.190.251.221</title>
<path fill="none" stroke="#a07070" d="M160,-321.697C160,-313.983 160,-304.712 160,-296.112"/>
<polygon fill="#a07070" stroke="#a07070" points="163.5,-296.104 160,-286.104 156.5,-296.104 163.5,-296.104"/>
</g>
<!-- 101.109.32.86 80/tcp -->
<g id="node5" class="node"><title>101.109.32.86 80/tcp</title>
<polygon fill="red" stroke="black" points="279.688,-26.5442 279.688,-41.4558 209.576,-52 110.424,-52 40.3125,-41.4558 40.3125,-26.5442 110.424,-16 209.576,-16 279.688,-26.5442"/>
<text text-anchor="middle" x="160" y="-30.3" font-family="Times,serif" font-size="14.00">101.109.32.86 80/tcp</text>
</g>
<!-- 203.113.37.181&#45;&gt;101.109.32.86 80/tcp -->
<g id="edge17" class="edge"><title>203.113.37.181&#45;&gt;101.109.32.86 80/tcp</title>
<path fill="none" stroke="#a07070" d="M160,-87.6966C160,-79.9827 160,-70.7125 160,-62.1124"/>
<polygon fill="#a07070" stroke="#a07070" points="163.5,-62.1043 160,-52.1043 156.5,-62.1044 163.5,-62.1043"/>
</g>
<!-- 121.189.2.174 -->
<g id="node6" class="node"><title>121.189.2.174</title>
<ellipse fill="#60ffff" stroke="black" cx="160" cy="-430" rx="77.9862" ry="18"/>
<text text-anchor="middle" x="160" y="-426.3" font-family="Times,serif" font-size="14.00">121.189.2.174</text>
</g>
<!-- 121.189.2.174&#45;&gt;203.190.251.222 -->
<g id="edge13" class="edge"><title>121.189.2.174&#45;&gt;203.190.251.222</title>
<path fill="none" stroke="#a07070" d="M160,-411.614C160,-399.24 160,-382.369 160,-368.22"/>
<polygon fill="#a07070" stroke="#a07070" points="163.5,-368.05 160,-358.05 156.5,-368.05 163.5,-368.05"/>
</g>
<!-- 112.174.88.69 -->
<g id="node7" class="node"><title>112.174.88.69</title>
<ellipse fill="#60ffff" stroke="black" cx="160" cy="-502" rx="77.9862" ry="18"/>
<text text-anchor="middle" x="160" y="-498.3" font-family="Times,serif" font-size="14.00">112.174.88.69</text>
</g>
<!-- 112.174.88.69&#45;&gt;121.189.2.174 -->
<g id="edge12" class="edge"><title>112.174.88.69&#45;&gt;121.189.2.174</title>
<path fill="none" stroke="#a07070" d="M160,-483.697C160,-475.983 160,-466.712 160,-458.112"/>
<polygon fill="#a07070" stroke="#a07070" points="163.5,-458.104 160,-448.104 156.5,-458.104 163.5,-458.104"/>
</g>
<!-- 104.36.18.3 -->
<g id="node8" class="node"><title>104.36.18.3</title>
<ellipse fill="#868660" stroke="black" cx="160" cy="-1330" rx="66.0889" ry="18"/>
<text text-anchor="middle" x="160" y="-1326.3" font-family="Times,serif" font-size="14.00">104.36.18.3</text>
</g>
<!-- 31.171.250.5 -->
<g id="node9" class="node"><title>31.171.250.5</title>
<ellipse fill="#868660" stroke="black" cx="160" cy="-1258" rx="72.2875" ry="18"/>
<text text-anchor="middle" x="160" y="-1254.3" font-family="Times,serif" font-size="14.00">31.171.250.5</text>
</g>
<!-- 104.36.18.3&#45;&gt;31.171.250.5 -->
<g id="edge1" class="edge"><title>104.36.18.3&#45;&gt;31.171.250.5</title>
<path fill="none" stroke="#a07070" d="M160,-1311.7C160,-1303.98 160,-1294.71 160,-1286.11"/>
<polygon fill="#a07070" stroke="#a07070" points="163.5,-1286.1 160,-1276.1 156.5,-1286.1 163.5,-1286.1"/>
</g>
<!-- 38.122.63.209 -->
<g id="node11" class="node"><title>38.122.63.209</title>
<ellipse fill="#86ba86" stroke="black" cx="160" cy="-1168" rx="77.9862" ry="18"/>
<text text-anchor="middle" x="160" y="-1164.3" font-family="Times,serif" font-size="14.00">38.122.63.209</text>
</g>
<!-- 31.171.250.5&#45;&gt;38.122.63.209 -->
<g id="edge2" class="edge"><title>31.171.250.5&#45;&gt;38.122.63.209</title>
<path fill="none" stroke="#a07070" d="M160,-1239.61C160,-1227.24 160,-1210.37 160,-1196.22"/>
<polygon fill="#a07070" stroke="#a07070" points="163.5,-1196.05 160,-1186.05 156.5,-1196.05 163.5,-1196.05"/>
</g>
<!-- 154.54.45.162 -->
<g id="node10" class="node"><title>154.54.45.162</title>
<ellipse fill="#86ba86" stroke="black" cx="160" cy="-736" rx="77.9862" ry="18"/>
<text text-anchor="middle" x="160" y="-732.3" font-family="Times,serif" font-size="14.00">154.54.45.162</text>
</g>
<!-- 154.54.31.54 -->
<g id="node15" class="node"><title>154.54.31.54</title>
<ellipse fill="#86ba86" stroke="black" cx="160" cy="-664" rx="72.2875" ry="18"/>
<text text-anchor="middle" x="160" y="-660.3" font-family="Times,serif" font-size="14.00">154.54.31.54</text>
</g>
<!-- 154.54.45.162&#45;&gt;154.54.31.54 -->
<g id="edge9" class="edge"><title>154.54.45.162&#45;&gt;154.54.31.54</title>
<path fill="none" stroke="#a07070" d="M160,-717.697C160,-709.983 160,-700.712 160,-692.112"/>
<polygon fill="#a07070" stroke="#a07070" points="163.5,-692.104 160,-682.104 156.5,-692.104 163.5,-692.104"/>
</g>
<!-- 154.54.30.53 -->
<g id="node12" class="node"><title>154.54.30.53</title>
<ellipse fill="#86ba86" stroke="black" cx="160" cy="-1096" rx="72.2875" ry="18"/>
<text text-anchor="middle" x="160" y="-1092.3" font-family="Times,serif" font-size="14.00">154.54.30.53</text>
</g>
<!-- 38.122.63.209&#45;&gt;154.54.30.53 -->
<g id="edge3" class="edge"><title>38.122.63.209&#45;&gt;154.54.30.53</title>
<path fill="none" stroke="#a07070" d="M160,-1149.7C160,-1141.98 160,-1132.71 160,-1124.11"/>
<polygon fill="#a07070" stroke="#a07070" points="163.5,-1124.1 160,-1114.1 156.5,-1124.1 163.5,-1124.1"/>
</g>
<!-- 154.54.7.158 -->
<g id="node13" class="node"><title>154.54.7.158</title>
<ellipse fill="#86ba86" stroke="black" cx="160" cy="-1024" rx="72.2875" ry="18"/>
<text text-anchor="middle" x="160" y="-1020.3" font-family="Times,serif" font-size="14.00">154.54.7.158</text>
</g>
<!-- 154.54.30.53&#45;&gt;154.54.7.158 -->
<g id="edge4" class="edge"><title>154.54.30.53&#45;&gt;154.54.7.158</title>
<path fill="none" stroke="#a07070" d="M160,-1077.7C160,-1069.98 160,-1060.71 160,-1052.11"/>
<polygon fill="#a07070" stroke="#a07070" points="163.5,-1052.1 160,-1042.1 156.5,-1052.1 163.5,-1052.1"/>
</g>
<!-- 154.54.28.130 -->
<g id="node14" class="node"><title>154.54.28.130</title>
<ellipse fill="#86ba86" stroke="black" cx="160" cy="-952" rx="77.9862" ry="18"/>
<text text-anchor="middle" x="160" y="-948.3" font-family="Times,serif" font-size="14.00">154.54.28.130</text>
</g>
<!-- 154.54.7.158&#45;&gt;154.54.28.130 -->
<g id="edge5" class="edge"><title>154.54.7.158&#45;&gt;154.54.28.130</title>
<path fill="none" stroke="#a07070" d="M160,-1005.7C160,-997.983 160,-988.712 160,-980.112"/>
<polygon fill="#a07070" stroke="#a07070" points="163.5,-980.104 160,-970.104 156.5,-980.104 163.5,-980.104"/>
</g>
<!-- 154.54.30.162 -->
<g id="node16" class="node"><title>154.54.30.162</title>
<ellipse fill="#86ba86" stroke="black" cx="160" cy="-880" rx="77.9862" ry="18"/>
<text text-anchor="middle" x="160" y="-876.3" font-family="Times,serif" font-size="14.00">154.54.30.162</text>
</g>
<!-- 154.54.28.130&#45;&gt;154.54.30.162 -->
<g id="edge6" class="edge"><title>154.54.28.130&#45;&gt;154.54.30.162</title>
<path fill="none" stroke="#a07070" d="M160,-933.697C160,-925.983 160,-916.712 160,-908.112"/>
<polygon fill="#a07070" stroke="#a07070" points="163.5,-908.104 160,-898.104 156.5,-908.104 163.5,-908.104"/>
</g>
<!-- 38.104.84.190 -->
<g id="node17" class="node"><title>38.104.84.190</title>
<ellipse fill="#86ba86" stroke="black" cx="160" cy="-592" rx="77.9862" ry="18"/>
<text text-anchor="middle" x="160" y="-588.3" font-family="Times,serif" font-size="14.00">38.104.84.190</text>
</g>
<!-- 154.54.31.54&#45;&gt;38.104.84.190 -->
<g id="edge10" class="edge"><title>154.54.31.54&#45;&gt;38.104.84.190</title>
<path fill="none" stroke="#a07070" d="M160,-645.697C160,-637.983 160,-628.712 160,-620.112"/>
<polygon fill="#a07070" stroke="#a07070" points="163.5,-620.104 160,-610.104 156.5,-620.104 163.5,-620.104"/>
</g>
<!-- 154.54.42.77 -->
<g id="node18" class="node"><title>154.54.42.77</title>
<ellipse fill="#86ba86" stroke="black" cx="160" cy="-808" rx="72.2875" ry="18"/>
<text text-anchor="middle" x="160" y="-804.3" font-family="Times,serif" font-size="14.00">154.54.42.77</text>
</g>
<!-- 154.54.30.162&#45;&gt;154.54.42.77 -->
<g id="edge7" class="edge"><title>154.54.30.162&#45;&gt;154.54.42.77</title>
<path fill="none" stroke="#a07070" d="M160,-861.697C160,-853.983 160,-844.712 160,-836.112"/>
<polygon fill="#a07070" stroke="#a07070" points="163.5,-836.104 160,-826.104 156.5,-836.104 163.5,-836.104"/>
</g>
<!-- 38.104.84.190&#45;&gt;112.174.88.69 -->
<g id="edge11" class="edge"><title>38.104.84.190&#45;&gt;112.174.88.69</title>
<path fill="none" stroke="#a07070" d="M160,-573.614C160,-561.24 160,-544.369 160,-530.22"/>
<polygon fill="#a07070" stroke="#a07070" points="163.5,-530.05 160,-520.05 156.5,-530.05 163.5,-530.05"/>
</g>
<!-- 154.54.42.77&#45;&gt;154.54.45.162 -->
<g id="edge8" class="edge"><title>154.54.42.77&#45;&gt;154.54.45.162</title>
<path fill="none" stroke="#a07070" d="M160,-789.697C160,-781.983 160,-772.712 160,-764.112"/>
<polygon fill="#a07070" stroke="#a07070" points="163.5,-764.104 160,-754.104 156.5,-764.104 163.5,-764.104"/>
</g>
</g>
</svg>
