<?xml version="1.0" encoding="UTF-8" standalone="no"?>
<!DOCTYPE svg PUBLIC "-//W3C//DTD SVG 1.1//EN"
 "http://www.w3.org/Graphics/SVG/1.1/DTD/svg11.dtd">
<!-- Generated by graphviz version 2.38.0 (20140413.2041)
 -->
<!-- Title: trace Pages: 1 -->
<svg width="534pt" height="268pt"
 viewBox="0.00 0.00 533.59 268.00" xmlns="http://www.w3.org/2000/svg" xmlns:xlink="http://www.w3.org/1999/xlink">
<g id="graph0" class="graph" transform="scale(1 1) rotate(0) translate(4 264)">
<title>trace</title>
<polygon fill="white" stroke="none" points="-4,4 -4,-264 529.594,-264 529.594,4 -4,4"/>
<g id="clust1" class="cluster"><title>cluster_23969</title>
<polygon fill="none" stroke="#608686" points="8,-8 8,-90 276,-90 276,-8 8,-8"/>
<text text-anchor="middle" x="142" y="-78" font-family="Times,serif" font-size="10.00">23969</text>
<text text-anchor="middle" x="142" y="-67" font-family="Times,serif" font-size="10.00">[TOT&#45;NET TOT Public Company Limited, TH]</text>
</g>
<g id="clust2" class="cluster"><title>cluster_50837</title>
<polygon fill="none" stroke="#60baba" points="89,-98 89,-252 249,-252 249,-98 89,-98"/>
<text text-anchor="middle" x="169" y="-240" font-family="Times,serif" font-size="10.00">50837</text>
<text text-anchor="middle" x="169" y="-229" font-family="Times,serif" font-size="10.00">[CLOUDSIGMA&#45;AS, CH]</text>
</g>
<!-- 101.109.32.86 443/tcp -->
<g id="node1" class="node"><title>101.109.32.86 443/tcp</title>
<polygon fill="red" stroke="black" points="267.85,-26.5442 267.85,-41.4558 194.129,-52 89.8711,-52 16.1496,-41.4558 16.1496,-26.5442 89.8711,-16 194.129,-16 267.85,-26.5442"/>
<text text-anchor="middle" x="142" y="-30.3" font-family="Times,serif" font-size="14.00">101.109.32.86 443/tcp</text>
</g>
<!-- 104.36.18.3 -->
<g id="node2" class="node"><title>104.36.18.3</title>
<ellipse fill="#60baba" stroke="black" cx="169" cy="-196" rx="66.0889" ry="18"/>
<text text-anchor="middle" x="169" y="-192.3" font-family="Times,serif" font-size="14.00">104.36.18.3</text>
</g>
<!-- 31.171.250.5 -->
<g id="node3" class="node"><title>31.171.250.5</title>
<ellipse fill="#60baba" stroke="black" cx="169" cy="-124" rx="72.2875" ry="18"/>
<text text-anchor="middle" x="169" y="-120.3" font-family="Times,serif" font-size="14.00">31.171.250.5</text>
</g>
<!-- 104.36.18.3&#45;&gt;31.171.250.5 -->
<g id="edge1" class="edge"><title>104.36.18.3&#45;&gt;31.171.250.5</title>
<path fill="none" stroke="#a07070" d="M163.122,-178.055C162.304,-170.346 162.061,-161.027 162.395,-152.364"/>
<polygon fill="#a07070" stroke="#a07070" points="165.894,-152.491 163.087,-142.275 158.911,-152.012 165.894,-152.491"/>
</g>
<!-- 104.36.18.3&#45;&gt;31.171.250.5 -->
<g id="edge3" class="edge"><title>104.36.18.3&#45;&gt;31.171.250.5</title>
<path fill="none" stroke="#a04040" d="M174.878,-178.055C175.696,-170.346 175.939,-161.027 175.605,-152.364"/>
<polygon fill="#a04040" stroke="#a04040" points="179.089,-152.012 174.913,-142.275 172.106,-152.491 179.089,-152.012"/>
</g>
<!-- 31.171.250.5&#45;&gt;101.109.32.86 443/tcp -->
<g id="edge4" class="edge"><title>31.171.250.5&#45;&gt;101.109.32.86 443/tcp</title>
<path fill="none" stroke="#a04040" d="M163.794,-106.033C159.972,-93.5738 154.7,-76.3937 150.3,-62.0503"/>
<polygon fill="#a04040" stroke="#a04040" points="153.561,-60.7489 147.282,-52.2155 146.869,-62.8022 153.561,-60.7489"/>
</g>
<!-- 101.109.32.86 80/tcp -->
<g id="node4" class="node"><title>101.109.32.86 80/tcp</title>
<polygon fill="red" stroke="black" points="525.688,-26.5442 525.688,-41.4558 455.576,-52 356.424,-52 286.312,-41.4558 286.312,-26.5442 356.424,-16 455.576,-16 525.688,-26.5442"/>
<text text-anchor="middle" x="406" y="-30.3" font-family="Times,serif" font-size="14.00">101.109.32.86 80/tcp</text>
</g>
<!-- 31.171.250.5&#45;&gt;101.109.32.86 80/tcp -->
<g id="edge2" class="edge"><title>31.171.250.5&#45;&gt;101.109.32.86 80/tcp</title>
<path fill="none" stroke="#a07070" d="M216.133,-110.37C236.026,-104.684 259.322,-97.5544 280,-90 307.313,-80.0216 337.165,-67.0845 360.954,-56.2645"/>
<polygon fill="#a07070" stroke="#a07070" points="362.454,-59.4272 370.087,-52.0795 359.538,-53.0635 362.454,-59.4272"/>
</g>
</g>
</svg>
